<?xml version="1.0" standalone="no"?>
<!DOCTYPE svg PUBLIC "-//W3C//DTD SVG 20010904//EN"
 "http://www.w3.org/TR/2001/REC-SVG-20010904/DTD/svg10.dtd">
<svg version="1.0" xmlns="http://www.w3.org/2000/svg"
 width="1600.000000pt" height="1600.000000pt" viewBox="0 0 1600.000000 1600.000000"
 preserveAspectRatio="xMidYMid meet">

<g transform="translate(0.000000,1600.000000) scale(0.100000,-0.100000)"
fill="#000000" stroke="none">
<path d="M11950 14225 c-779 -293 -723 -271 -889 -355 -374 -190 -703 -457
-964 -784 -141 -177 -260 -372 -735 -1201 l-463 -810 -147 -22 c-737 -108
-1599 -45 -2203 163 -175 59 -419 179 -484 237 l-50 45 20 22 c32 36 163 119
260 165 434 207 1095 324 1768 313 l217 -3 269 475 269 475 -31 7 c-202 43
-1005 58 -1352 25 -973 -94 -1700 -351 -2102 -744 -105 -103 -420 -501 -639
-808 -240 -335 -403 -597 -531 -850 -60 -119 -104 -187 -211 -330 -767 -1018
-1253 -2211 -1402 -3437 -36 -298 -44 -450 -44 -773 0 -274 3 -344 22 -485
104 -769 405 -1434 943 -2085 112 -135 446 -468 594 -591 1583 -1316 3889
-1726 5949 -1057 965 313 1792 836 2420 1529 581 641 948 1424 1041 2224 52
443 16 1094 -91 1663 -204 1090 -659 2113 -1339 3016 -104 138 -148 207 -204
319 -211 421 -656 1064 -1085 1567 -23 28 -46 56 -50 63 -10 16 102 185 200
302 171 204 416 393 649 500 59 28 1162 449 1366 522 l26 9 -164 437 c-90 240
-169 451 -176 469 l-12 31 -645 -243z m-6471 -3586 c89 -65 261 -163 426 -244
156 -77 510 -197 736 -249 837 -194 1881 -194 2718 0 236 55 580 172 746 254
156 77 353 191 432 251 29 21 55 39 58 39 10 0 211 -311 274 -424 61 -111 121
-258 121 -300 0 -40 -50 -123 -113 -188 -403 -412 -1365 -707 -2502 -768
-1246 -66 -2541 206 -3128 657 -135 104 -237 232 -237 298 0 35 44 153 91 246
52 104 291 479 305 479 2 0 35 -23 73 -51z m-854 -1755 c124 -102 370 -250
565 -342 1215 -574 3135 -708 4677 -327 706 175 1236 426 1630 772 l72 64 39
-68 c419 -719 713 -1501 826 -2203 81 -500 85 -948 12 -1301 -143 -684 -543
-1319 -1163 -1846 -419 -356 -994 -672 -1558 -858 -516 -171 -1029 -257 -1600
-271 -1265 -31 -2486 378 -3390 1135 -136 114 -375 352 -484 481 -404 482
-642 985 -728 1540 -25 159 -24 578 1 810 86 805 364 1622 835 2453 l72 128
72 -64 c40 -34 95 -81 122 -103z"/>
</g>
</svg>
